# xmcd
#
# Track frame offsets:
#       150
#       18258
#       33125
#       49245
#       73968
#       95017
#       108460
#       131020
#       139907
#       165379
#       183694
#       193757
#       209565
#       233933
#
# Disc length: 3297 seconds
#
# Revision: 1
# Processed by: cddbd v1.4PL0 Copyright (c) Steve Scherf et al.
# Submitted via: MusiCat 1.1
#
DISCID=d20cdf0e
DTITLE=Steve Earle - October 29,1999,Chiari, Italy - Disc 1
DYEAR=1900
DGENRE=
TTITLE0=Steve's Last Ramble
TTITLE1=More Than I Can Do
TTITLE2=Now She's Gone
TTITLE3=Goodbye
TTITLE4=Taneytown
TTITLE5=South Nashville Blues
TTITLE6=CCKMP
TTITLE7=My Old Friend The Blues
TTITLE8=Someday
TTITLE9=Valentine's Day
TTITLE10=Outlaw's Honeymoon
TTITLE11=Devils Right Hand
TTITLE12=Brand New Companion
TTITLE13=Hometown Blues
EXTD=\n\n
EXTT0=
EXTT1=
EXTT2=
EXTT3=
EXTT4=
EXTT5=
EXTT6=
EXTT7=
EXTT8=
EXTT9=
EXTT10=
EXTT11=
EXTT12=
EXTT13=
PLAYORDER=
